# xmcd CD database file
#
# Track frame offsets:
#	150
#	13553
#	27897
#	40933
#	53212
#	65260
#	77640
#	89265
#	99946
#	110915
#	124581
#	136396
#	149561
#	161569
#	172147
#	185282
#	198666
#	211424
#	223737
#	234676
#	244496
#	256435
#	269601
#	281436
#	292909
#	305628
#	317857
#	329862
#	341969
#
# Disc length: 4716 seconds
#
# Revision: 0
# Processed by: cddbd v1.5.2PL0 Copyright (c) Steve Scherf et al.
# Submitted via: jetAudio 7
#
DISCID=ce126a1d
DTITLE=Jimmy McCracklin - The Rockin' Man
DYEAR=1900
DGENRE=Blues
TTITLE0=Rockin' man
TTITLE1=Savoy's jump
TTITLE2=Beer tavern girl
TTITLE3=You're the one
TTITLE4=What's your phone number
TTITLE5=House rockin' blues
TTITLE6=I'm gonna have my fun
TTITLE7=Pleasin' papa
TTITLE8=The cheater
TTITLE9=Hear my story
TTITLE10=She felt too good
TTITLE11=It's allright
TTITLE12=She's gone
TTITLE13=Hello baby
TTITLE14=Take a chance
TTITLE15=I can't understand love
TTITLE16=That's life
TTITLE17=Night and day
TTITLE18=I wanna make love to you
TTITLE19=We could make it a go, I know
TTITLE20=I need your lovin'
TTITLE21=I don't want no woman
TTITLE22=True blues
TTITLE23=Love for you
TTITLE24=I'm the one
TTITLE25=Blues for the people
TTITLE26=Rock and rye - part 1
TTITLE27=Rock and rye - part 2
TTITLE28=Farewell
EXTD=
EXTT0=
EXTT1=
EXTT2=
EXTT3=
EXTT4=
EXTT5=
EXTT6=
EXTT7=
EXTT8=
EXTT9=
EXTT10=
EXTT11=
EXTT12=
EXTT13=
EXTT14=
EXTT15=
EXTT16=
EXTT17=
EXTT18=
EXTT19=
EXTT20=
EXTT21=
EXTT22=
EXTT23=
EXTT24=
EXTT25=
EXTT26=
EXTT27=
EXTT28=
PLAYORDER=
